<?xml version="1.0" encoding="utf-8"?>
<!-- Generator: Adobe Illustrator 16.0.0, SVG Export Plug-In . SVG Version: 6.00 Build 0)  -->
<!DOCTYPE svg PUBLIC "-//W3C//DTD SVG 1.0//EN" "http://www.w3.org/TR/2001/REC-SVG-20010904/DTD/svg10.dtd" [
	<!ENTITY st0 "fill:#36A9E1;stroke:#1D1D1B;stroke-miterlimit:10;">
	<!ENTITY st1 "stroke:#1D1D1B;stroke-miterlimit:10;">
	<!ENTITY st2 "fill:#FAFAFA;">
	<!ENTITY st3 "fill:#36A9E1;stroke:#36A9E1;stroke-miterlimit:10;">
	<!ENTITY st4 "fill:#FFFFFF;">
	<!ENTITY st5 "stroke:#000000;stroke-miterlimit:10;">
]>
<svg version="1.0" id="Capa_1" xmlns="http://www.w3.org/2000/svg" xmlns:xlink="http://www.w3.org/1999/xlink" x="0px" y="0px"
	 width="400px" height="80.852px" viewBox="0 0 400 80.852" style="enable-background:new 0 0 400 80.852;" xml:space="preserve">
<path style="&st4;" d="M104.775,61.932c0,5.715-2.102,10.295-6.307,13.746c-4.205,3.449-9.541,5.174-16.01,5.174
	c-4.313,0-8.805-0.773-13.477-2.316c-4.672-1.545-8.877-3.828-12.613-6.848l7.115-10.133c6.037,4.672,12.469,7.008,19.299,7.008
	c2.082,0,3.736-0.414,4.959-1.24c1.221-0.826,1.832-1.922,1.832-3.289c0-1.363-0.846-2.621-2.533-3.773
	c-1.689-1.148-4.135-2.227-7.332-3.232s-5.643-1.869-7.33-2.588c-1.689-0.719-3.611-1.762-5.768-3.127
	c-4.385-2.73-6.576-6.773-6.576-12.129c0-5.354,2.156-9.719,6.469-13.098s9.881-5.068,16.709-5.068s13.656,2.301,20.484,6.9
	L97.66,38.699c-5.031-3.451-10.045-5.176-15.039-5.176c-4.996,0-7.494,1.367-7.494,4.098c0,1.51,0.791,2.695,2.373,3.557
	c1.58,0.863,4.205,1.871,7.869,3.02c3.666,1.15,6.27,2.031,7.816,2.641c1.545,0.611,3.396,1.564,5.553,2.857
	C102.762,52.139,104.775,56.219,104.775,61.932z"/>
<path style="&st4;" d="M131.619,33.631v25.982c0,2.229,0.574,3.973,1.725,5.229c1.148,1.26,2.516,1.887,4.096,1.887
	c3.02,0,5.57-1.363,7.654-4.096l6.039,11.32c-5.033,4.6-10.334,6.898-15.902,6.898c-5.57,0-10.279-1.832-14.123-5.498
	c-3.846-3.666-5.768-8.66-5.768-14.984V33.631h-6.793V21.988h6.793V4.633h16.279v17.355h14.014v11.643H131.619z"/>
<path style="&st4;" d="M192.744,53.254V21.988h16.279V79.99h-16.279v-7.654c-4.025,5.678-9.217,8.516-15.578,8.516
	s-11.697-1.994-16.01-5.982c-4.313-3.99-6.469-9.9-6.469-17.734V21.988h16.279v31.588c0,8.914,3.27,13.369,9.811,13.369
	c3.234,0,6.037-1.168,8.41-3.504C191.559,61.105,192.744,57.711,192.744,53.254z"/>
<path style="&st4;" d="M243.146,80.852c-6.865,0-12.992-2.91-18.383-8.732c-5.391-5.82-8.086-13.045-8.086-21.67
	c0-8.623,2.623-15.686,7.871-21.184c5.246-5.498,11.391-8.248,18.436-8.248c7.043,0,12.791,2.48,17.248,7.439V0h16.172v79.99
	h-16.172v-7.654C255.705,78.014,250.008,80.852,243.146,80.852z M232.957,51.098c0,4.672,1.402,8.5,4.205,11.48
	c2.803,2.984,6.072,4.475,9.811,4.475c3.736,0,6.916-1.49,9.541-4.475c2.623-2.98,3.936-6.826,3.936-11.535
	c0-4.707-1.313-8.625-3.936-11.752c-2.625-3.125-5.84-4.689-9.648-4.689c-3.811,0-7.08,1.582-9.811,4.744
	C234.322,42.51,232.957,46.426,232.957,51.098z"/>
<path style="&st4;" d="M301.463,79.99h-16.172V21.988h16.172V79.99z"/>
<path style="&st4;" d="M370.354,50.988c0,8.41-2.912,15.49-8.734,21.238c-5.82,5.752-13.135,8.625-21.938,8.625
	c-8.807,0-16.119-2.873-21.939-8.625c-5.822-5.748-8.732-12.828-8.732-21.238c0-8.408,2.91-15.506,8.732-21.291
	c5.82-5.785,13.133-8.68,21.939-8.68c8.803,0,16.117,2.895,21.938,8.68C367.441,35.482,370.354,42.58,370.354,50.988z
	 M325.289,50.988c0,4.744,1.348,8.609,4.043,11.59c2.695,2.984,6.145,4.475,10.35,4.475c4.203,0,7.654-1.49,10.35-4.475
	c2.695-2.98,4.043-6.846,4.043-11.59c0-4.742-1.348-8.623-4.043-11.643s-6.146-4.527-10.35-4.527c-4.205,0-7.654,1.508-10.35,4.527
	S325.289,46.246,325.289,50.988z"/>
</svg>
