<?xml version="1.0" encoding="utf-8"?>
<!-- Generator: Adobe Illustrator 16.0.0, SVG Export Plug-In . SVG Version: 6.00 Build 0)  -->
<!DOCTYPE svg PUBLIC "-//W3C//DTD SVG 1.0//EN" "http://www.w3.org/TR/2001/REC-SVG-20010904/DTD/svg10.dtd" [
	<!ENTITY st0 "fill:#36A9E1;stroke:#1D1D1B;stroke-miterlimit:10;">
	<!ENTITY st1 "stroke:#1D1D1B;stroke-miterlimit:10;">
	<!ENTITY st2 "fill:#FAFAFA;">
	<!ENTITY st3 "fill:#36A9E1;stroke:#36A9E1;stroke-miterlimit:10;">
	<!ENTITY st4 "fill:#FFFFFF;">
	<!ENTITY st5 "stroke:#000000;stroke-miterlimit:10;">
]>
<svg version="1.0" id="Capa_1" xmlns="http://www.w3.org/2000/svg" xmlns:xlink="http://www.w3.org/1999/xlink" x="0px" y="0px"
	 width="400px" height="85.74px" viewBox="0 0 400 85.74" style="enable-background:new 0 0 400 85.74;" xml:space="preserve">
<path style="&st4;" d="M62.022,84.684H45.267L25.483,26.686h16.756l11.352,35.039l11.351-35.039h15.676l11.35,35.039l11.352-35.039
	h16.864l-19.783,57.998H83.535L72.833,53.1L62.022,84.684z"/>
<path style="&st4;" d="M178.291,55.686c0,8.41-2.91,15.488-8.731,21.236c-5.822,5.75-13.137,8.623-21.939,8.623
	c-8.805,0-16.117-2.873-21.939-8.623c-5.822-5.748-8.732-12.826-8.732-21.236c0-8.408,2.91-15.506,8.732-21.291
	s13.135-8.68,21.939-8.68c8.803,0,16.117,2.895,21.939,8.68C175.381,40.18,178.291,47.277,178.291,55.686z M133.228,55.686
	c0,4.744,1.348,8.609,4.043,11.59c2.695,2.982,6.145,4.473,10.35,4.473c4.204,0,7.654-1.49,10.35-4.473
	c2.695-2.98,4.043-6.846,4.043-11.59c0-4.742-1.348-8.625-4.043-11.643c-2.695-3.02-6.146-4.527-10.35-4.527
	c-4.205,0-7.654,1.508-10.35,4.527C134.575,47.061,133.228,50.943,133.228,55.686z"/>
<path style="&st4;" d="M199.559,52.344v32.34h-16.172V26.686h16.172v6.469c4.887-4.959,10.385-7.439,16.494-7.439
	c6.108,0,11.229,2.156,15.363,6.469c4.132,4.313,6.199,10.063,6.199,17.25v35.25h-16.172V51.912c0-8.91-3.271-13.367-9.811-13.367
	c-3.234,0-6.056,1.168-8.463,3.504C200.761,44.385,199.559,47.816,199.559,52.344z"/>
<path style="&st4;" d="M260.923,84.684h-16.625V4.693h16.625v41.074l18.508-19.189h20.946L277.658,50.08l23.605,34.604h-19.728
	l-15.184-22.205l-5.43,5.498V84.684z"/>
<path style="&st4;" d="M349.352,84.684H334.15v-7.006c-4.169,5.244-9.325,7.867-15.47,7.867c-6.146,0-11.304-1.777-15.471-5.336
	c-4.17-3.557-6.253-8.299-6.253-14.229c0-5.928,2.156-10.365,6.468-13.313c4.313-2.947,10.205-4.42,17.681-4.42h12.075v-0.324
	c0-6.18-3.271-9.271-9.811-9.271c-2.803,0-5.768,0.557-8.895,1.672c-3.126,1.113-5.768,2.498-7.924,4.15l-7.224-10.459
	c7.618-5.533,16.314-8.301,26.09-8.301c7.043,0,12.793,1.762,17.25,5.283c4.455,3.521,6.684,9.094,6.684,16.711V84.684z
	 M333.073,62.586v-2.803h-10.135c-6.469,0-9.702,2.014-9.702,6.035c0,2.086,0.771,3.686,2.317,4.799
	c1.545,1.115,3.755,1.67,6.63,1.67c2.874,0,5.408-0.879,7.601-2.641C331.977,67.887,333.073,65.531,333.073,62.586z"/>
<path style="&st4;" d="M358.401,82.797c-1.832-1.834-2.749-4.078-2.749-6.736s0.917-4.904,2.749-6.738
	c1.833-1.832,4.078-2.75,6.738-2.75c2.658,0,4.905,0.918,6.738,2.75c1.833,1.834,2.749,4.08,2.749,6.738s-0.916,4.902-2.749,6.736
	c-1.833,1.832-4.08,2.748-6.738,2.748C362.479,85.545,360.234,84.629,358.401,82.797z"/>
</svg>
